<svg viewBox="0 0 81.4 81.4">
<g>
	<path d="M32,39.8c-2.5,0-4.1,5.3-4.1,8c0,2.3,0.9,2.3,1.5,2.3c0.8,0,2.1-0.9,2.4-2.6l1.4-6.6
		C33.2,40.5,33,39.8,32,39.8z"/>
	<path d="M31.9,19.2c-1.1,0.6-2.4,2.3-3.4,4.4c0.8,0.2,1.6,0.4,2.3,0.7L31.9,19.2z"/>
	<path d="M37,29.2c0.5,0,1.3-0.4,1.5-1.3l1-4.6c0-0.2-0.2-0.7-0.8-0.7c-1.6,0-2.7,3.4-2.7,5.2
		C36,29.1,36.6,29.2,37,29.2z"/>
	<path d="M43.6,33.5c0.1,0.1,0.3,0.1,0.3,0.2C44.2,33.6,43.5,33.2,43.6,33.5z"/>
	<path d="M42.4,35.1c-0.1,0.2,0,0.4-0.4,0.5c-0.1,0-0.3,0.2-0.3,0.1c-0.3,0-0.6,0-0.8-0.1c-0.1,0.1-0.4,0-0.4,0
		c-0.3,0.1-0.1,0.4,0.1,0.6c0.2,0.1,0.4,0.2,0.6,0.2v0c0.2,0,0.3,0,0.5-0.1c0,0.1,0.2-0.1,0.4-0.2c0.2,0,0.2-0.2,0.5-0.2
		c0-0.1,0.4-0.2,0.2-0.3c0.2-0.1,0.2-0.1,0.4-0.2C43.1,35.3,42.6,35.1,42.4,35.1z"/>
	<path d="M77.8,9c0-1.3,1.4-2.5,3.6-3.1L75.8,0c-0.6,2.1-1.8,3.6-3.1,3.6c-1.3,0-2.5-1.4-3.1-3.6h-0.9
		c-0.6,2.1-1.8,3.6-3.1,3.6S63.2,2.1,62.6,0h-0.9c-0.6,2.1-1.8,3.6-3.1,3.6S56.1,2.1,55.5,0h-0.9c-0.6,2.1-1.8,3.6-3.1,3.6
		c-1.3,0-2.5-1.4-3.1-3.6h-0.9c-0.6,2.1-1.8,3.6-3.1,3.6S42,2.1,41.4,0h-0.9c-0.6,2.1-1.8,3.6-3.1,3.6S35,2.1,34.4,0h-0.9
		c-0.6,2.1-1.8,3.6-3.1,3.6c-1.3,0-2.5-1.4-3.1-3.6h-0.9c-0.6,2.1-1.8,3.6-3.1,3.6S20.9,2.1,20.3,0h-0.9c-0.6,2.1-1.8,3.6-3.1,3.6
		S13.8,2.1,13.2,0h-0.9c-0.6,2.1-1.8,3.6-3.1,3.6C7.9,3.6,6.8,2.1,6.2,0L0,5.9C2.1,6.5,3.6,7.6,3.6,9S2.1,11.4,0,12v0.9
		c2.1,0.6,3.6,1.8,3.6,3.1c0,1.3-1.4,2.5-3.6,3.1V20c2.1,0.6,3.6,1.8,3.6,3.1S2.1,25.5,0,26.1V27c2.1,0.6,3.6,1.8,3.6,3.1
		S2.1,32.6,0,33.2v0.9c2.1,0.6,3.6,1.8,3.6,3.1c0,1.3-1.4,2.5-3.6,3.1v0.9c2.1,0.6,3.6,1.8,3.6,3.1S2.1,46.7,0,47.3v0.9
		c2.1,0.6,3.6,1.8,3.6,3.1c0,1.3-1.4,2.5-3.6,3.1v0.9c2.1,0.6,3.6,1.8,3.6,3.1S2.1,60.8,0,61.4v0.9c2.1,0.6,3.6,1.8,3.6,3.1
		S2.1,67.8,0,68.4v0.9c2.1,0.6,3.6,1.8,3.6,3.1c0,1.3-1.4,2.5-3.6,3.1l6.2,5.9c0.6-2.1,1.8-3.6,3.1-3.6c1.3,0,2.5,1.4,3.1,3.6h0.9
		c0.6-2.1,1.8-3.6,3.1-3.6s2.5,1.4,3.1,3.6h0.9c0.6-2.1,1.8-3.6,3.1-3.6s2.5,1.4,3.1,3.6h0.9c0.6-2.1,1.8-3.6,3.1-3.6
		c1.3,0,2.5,1.4,3.1,3.6h0.9c0.6-2.1,1.8-3.6,3.1-3.6s2.5,1.4,3.1,3.6h0.9c0.6-2.1,1.8-3.6,3.1-3.6s2.5,1.4,3.1,3.6h0.9
		c0.6-2.1,1.8-3.6,3.1-3.6c1.3,0,2.5,1.4,3.1,3.6h0.9c0.6-2.1,1.8-3.6,3.1-3.6s2.5,1.4,3.1,3.6h0.9c0.6-2.1,1.8-3.6,3.1-3.6
		s2.5,1.4,3.1,3.6h0.9c0.6-2.1,1.8-3.6,3.1-3.6c1.3,0,2.5,1.4,3.1,3.6l5.6-5.9c-2.1-0.6-3.6-1.8-3.6-3.1c0-1.3,1.4-2.5,3.6-3.1v-0.9
		c-2.1-0.6-3.6-1.8-3.6-3.1s1.4-2.5,3.6-3.1v-0.9c-2.1-0.6-3.6-1.8-3.6-3.1s1.4-2.5,3.6-3.1v-0.9c-2.1-0.6-3.6-1.8-3.6-3.1
		c0-1.3,1.4-2.5,3.6-3.1v-0.9c-2.1-0.6-3.6-1.8-3.6-3.1s1.4-2.5,3.6-3.1v-0.9c-2.1-0.6-3.6-1.8-3.6-3.1c0-1.3,1.4-2.5,3.6-3.1v-0.9
		c-2.1-0.6-3.6-1.8-3.6-3.1s1.4-2.5,3.6-3.1v-0.9c-2.1-0.6-3.6-1.8-3.6-3.1s1.4-2.5,3.6-3.1v-0.9c-2.1-0.6-3.6-1.8-3.6-3.1
		c0-1.3,1.4-2.5,3.6-3.1V12C79.2,11.4,77.8,10.3,77.8,9z M59.4,31.9c1.3,0,2.3,1.1,2.3,2.3c0,1.3-1.1,2.3-2.3,2.3s-2.3-1-2.3-2.3
		C57.1,32.9,58.1,31.9,59.4,31.9z M48.5,7l0.4-1.4L49.3,7l1.4,0l-1.2,0.8L50,9.2l-1.1-0.8l-1.1,0.8l0.4-1.4L47,7L48.5,7z M38.1,21.3
		c1.1,0,1.5,0.5,1.5,1v0.1l0.9-4.4l2.8-0.3L41.2,28c0,0.2-0.1,0.4-0.1,0.6c0,0.4,0.2,0.8,0.8,0.8c0.3,0,0.5,0,0.6-0.1
		c-0.1,0.3-0.9,1.6-1.8,1.9c1.7-0.2,2.8-1.3,2.9-2.6c0.1-2,1-2.8,1.5-3.7c0.4-0.6,1.3-1.3,1.1-2.1c-0.2-0.8-0.7-1.7-0.4-2.5
		c0.2-0.8,1-1.3,1.3-2c0.2-0.9-0.8-1.9-0.3-2.7c0.1-0.7,1.3-1.2,0.8-2.1c-0.3-0.8-0.1-1.6,0.4-2.2c0.4-0.4,0.5-1.9,0.9-1.5
		c0.4,0.8,0.1,1.6-0.3,2.3c-0.4,0.8,0.7,1.7,0.3,2.5c-0.3,0.7-1.1,1.2-0.6,2c0.7,1,0.8,2.1,0.1,2.9c-0.6,0.6-0.7,1.4-0.2,2.2
		c0.4,0.8,0.5,1.7,0,2.4c-0.3,0.7-1.3,2.1-0.9,3.1c1,3-0.5,2.5,1.2,5.5c0.3,0.2,0.7,0.6,0.3,0.5l0,0c-1.2-0.6-1.1-0.7-2.5-1
		c-0.2-0.1-0.4-0.2-0.6-0.2c0.1,0.2,0.4,0.4,0.5,0.5c0.3,0.2,0.2,0.5-0.1,0.6c-0.3,0.1-0.5,0.2-0.6,0.4c-0.3,0.2-0.4,0.4-0.6,0.7
		c-0.2,0.3-0.2,0.6-0.4,0.9c-0.2,0.2-0.3,0.5-0.5,0.7c-0.5,0.4-1.2,0.8-1.9,1.1c-0.3,0.1-0.6,0-0.9,0c0,0,0,0-0.1,0
		c-0.5-0.1-1-0.4-1.1-0.8c-0.2-0.2-0.2-0.5-0.1-0.7c0.3-0.3,0.8-0.3,1.3-0.4c0.3,0,0.7,0.1,1-0.1c0.1-0.2,0.4-0.3,0.6-0.5
		c0.2-0.2,0.3-0.4,0.4-0.6c0.1-0.2,0.2-0.5,0.3-0.7c0.1-0.2,0-0.5-0.2-0.7C43,32,43,31.8,43.4,31.7c0.2-0.1,0.6-0.1,0.8-0.2
		c-0.1,0-0.2,0-0.2-0.1c-0.4-0.1-2.6-0.3-3.5-0.4c0,0,0,0,0,0c0,0-0.1,0-0.1,0c0,0-0.1,0-0.1,0c0,0,0,0,0,0
		c-0.9-0.1-1.6-0.6-1.8-1.6C37.9,30.3,37,31,35.7,31c-1.3,0-2.5-0.9-2.5-3.1C33.2,25.3,34.8,21.2,38.1,21.3z M25.8,23.3
		c0.3,0,0.6,0,1,0.1c1.9-3,4.4-5.5,6.6-5.5c0.4,0,1,0.1,1.5,0.3l-3,14l-2.7-0.1l1.5-6.9c-1-0.5-1.7-0.7-2.6-0.8
		c-1.4,3.1-2.5,6.7-2.5,8.7c0,0.6,0.2,0.9,0.3,1.1c-1,0-2.6-0.1-2.6-2.1c0-1.7,1.1-4.8,2.8-7.7c-1.2,0-2,0.3-2.2,0.9
		c0.1,0,0.2,0.3,0.2,0.6c0,0.5-0.5,0.7-1.1,0.7c-0.6,0-1.2-0.4-1.2-1.1C21.9,24.2,23.5,23.2,25.8,23.3z M22.1,52.7
		c-1.2,0.4-2.2,0.5-2.9,0.5c-1.9,0-2.3-1-2.3-2c0-1.9,1.5-5.5,1.5-7.7c0-1.2-0.4-2-1.8-2c-0.3,0-0.6,0.1-1,0.1l-2.3,11H9.2l4-18.6
		l4.3-0.6L16,40.3h0.2c2.4,0,4.2-2.9,4.2-5.1c0-1.6-0.9-3.1-3.2-3.1c-4.7,0-7.9,2.7-7.9,7.1c0,1.5,0.4,1.7,0.4,2
		c-2,0-3.1-0.7-3.1-2.8c0-3.9,5.4-7.6,10.3-7.6c4.6,0,6.6,2.3,6.6,4.7c0,1.8-1.1,3.8-3.2,5c1.5,0.4,2,1.5,2,2.9
		c0,2.4-1.4,5.6-1.4,7.4C20.9,51.7,21.4,52.5,22.1,52.7z M31.1,68.2h-0.1l-1.8,8.3h-4.2l4-18.6l4.3-0.6l-2.1,9.8
		c3-0.2,5.1-4.1,5.1-7.2c0-2.2-1.1-4-3.6-4c-4.7,0-7.6,2.7-7.6,7.1c0,1.5,0.4,1.7,0.4,2c-2,0-3.1-0.7-3.1-2.8
		c0-3.9,5.4-7.6,10.3-7.6c4.8,0,6.9,2.7,6.9,5.8C39.5,64.1,36.3,68.2,31.1,68.2z M56.8,76.7c-2.3,0-3-1.6-3-3.3c0-2,1.3-5.6,1.3-7.5
		c0-1-0.4-1.5-1.1-1.5c-1.1,0-1.8,1.2-2.3,2.7l-2,9.4h-4.2l0.4-1.7c-1.5,1.6-3.1,1.9-4.2,1.9c-1.8,0-3.1-1.1-3.1-3.5
		c0-0.6,0.1-1.2,0.2-1.9l2-9.4h4.2L43,71.9c-0.1,0.4-0.1,0.7-0.1,0.9c0,0.8,0.4,1.1,1.2,1.1c1.1,0,2.2-1.1,2.6-2.6l2-9.4h4.2
		l-0.3,1.5c1.2-1.4,2.5-1.6,3.4-1.6c1.9,0,3.2,1,3.2,3.3c0,2.4-1.4,5.9-1.4,7.5c0,0.7,0.3,1.2,1.2,1.2c0.5,0,0.8-0.1,1-0.2
		C59.7,75.8,58.3,76.7,56.8,76.7z M41.5,58c0-1.3,1-2.3,2.3-2.3c1.3,0,2.3,1.1,2.3,2.3c0,1.3-1.1,2.3-2.3,2.3
		C42.5,60.3,41.5,59.3,41.5,58z M74.7,50.1c0.3,0,0.4,0,0.6-0.1c-0.8,2-1.3,3-2.9,3s-2.6-1-2.9-2.7c-0.9,1.3-2.3,2.7-4.4,2.7
		c-1.5,0-3-0.7-3.6-2.6C60.5,52,59,52.6,57.8,53l-0.4,2.1c-0.9,4.2-3.3,5-5.3,5c-1.8,0-3.3-0.9-3.3-2.8c0-2.5,2.6-3.7,4.8-4.4L54,51
		c-1.4,1.5-2.9,1.7-3.9,1.7c-1.6,0-2.6-0.9-2.9-2.5c-0.9,1.3-2.3,2.7-4.3,2.7c-1.5,0-3-0.7-3.6-2.7c-1.5,2.3-3.4,2.7-4.6,2.7
		c-1.6,0-2.7-0.9-2.9-2.7c-0.9,1.3-2.3,2.7-4.4,2.7c-2,0-3.9-1.2-3.9-4.7c0-3.9,2.4-10.2,7.5-10.2c1.7,0,2.4,0.6,2.4,1.5v0.2
		l0.3-1.5H38l-2.1,9.9c-0.1,0.4-0.1,0.7-0.1,0.9c0,0.8,0.4,1.3,1.2,1.3c0.9,0,1.5-0.8,2-1.8c0-0.1,0-0.2,0-0.3
		c0-3.9,2.4-10.2,7.5-10.2c1.7,0,2.4,0.6,2.4,1.5v0.1l1.4-6.7l4.3-0.6l-3.4,15.8c-0.1,0.4-0.1,0.7-0.1,0.9c0,0.8,0.4,1.1,1.2,1.1
		c1.1,0,1.9-1.1,2.4-2.6h0l2-9.4h4.2L58,51.7c1.5-0.6,2.5-1.4,3.3-3.2c0-0.1,0-0.2,0-0.3c0-3.9,2.4-10.2,7.5-10.2
		c1.7,0,2.4,0.6,2.4,1.5v0.2l0.3-1.5h4.2l-2.1,9.9c-0.1,0.4-0.1,0.7-0.1,0.9C73.5,49.8,73.9,50.1,74.7,50.1z"/>
	<path d="M69.8,39.8c-2.5,0-4.1,5.3-4.1,8c0,2.3,0.9,2.3,1.5,2.3c0.8,0,2.1-0.9,2.4-2.6l1.4-6.6
		C71,40.5,70.7,39.8,69.8,39.8z"/>
	<path d="M47.4,39.8c-2.5,0-4.1,5.3-4.1,8c0,2.3,0.9,2.3,1.5,2.3c0.8,0,2-0.8,2.4-2.4v-0.1l1.4-6.7
		C48.5,40.5,48.3,39.8,47.4,39.8z"/>
	<path d="M50.4,56.8c0,0.4,0.4,1,1,1c0.6,0,1.3-0.9,1.7-2.6l0.2-0.8C51.8,54.9,50.4,55.6,50.4,56.8z"/>
</g>
</svg>
