<svg viewBox="0 0 81.4 81.4">
<style type="text/css">
	.st0{fill-rule:evenodd;clip-rule:evenodd;fill:#EB1A37;}
	.st1{fill-rule:evenodd;clip-rule:evenodd;fill:#FFFFFF;}
</style>
<rect class="st0" width="81.4" height="81.4"/>
<g>
	<path class="st1" d="M28.4,57l-4,18.6h4.2l1.8-8.3h0.1c5.3,0,8.4-4.1,8.4-7.8c0-3-2.1-5.8-6.9-5.8c-4.9,0-10.3,3.7-10.3,7.6
		c0,2.1,1.1,2.8,3.1,2.8c0-0.3-0.4-0.5-0.4-2c0-4.4,2.8-7.1,7.6-7.1c2.6,0,3.6,1.8,3.6,4c0,3.1-2.2,7-5.1,7.2l2.1-9.8L28.4,57z"/>
	<path class="st1" d="M41,57c0,1.3,1,2.3,2.3,2.3c1.3,0,2.3-1,2.3-2.3c0-1.3-1.1-2.3-2.3-2.3C42,54.7,41,55.8,41,57L41,57z
		 M40.4,60.9l-2,9.4c-0.1,0.7-0.2,1.3-0.2,1.9c0,2.5,1.4,3.5,3.1,3.5c1.6,0,4.5-0.6,6.1-5.4h-1.2c-0.4,1.5-1.5,2.6-2.6,2.6
		c-0.8,0-1.2-0.3-1.2-1.1c0-0.3,0-0.6,0.1-0.9l2.1-9.9H40.4z"/>
	<path class="st1" d="M54.7,65c0,1.9-1.3,5.5-1.3,7.5c0,1.7,0.7,3.3,3,3.3c1.5,0,3-0.9,3.2-3c-0.2,0.1-0.5,0.2-1,0.2
		c-0.9,0-1.2-0.5-1.2-1.2c0-1.6,1.4-5.2,1.4-7.5c0-2.3-1.4-3.3-3.2-3.3c-0.9,0-2.2,0.2-3.4,1.6l0.3-1.5h-4.2l-3.1,14.6h4.2l2-9.4
		c0.4-1.5,1.2-2.7,2.3-2.7C54.3,63.5,54.7,64,54.7,65L54.7,65z"/>
	<path class="st1" d="M48.6,33.2c-1.2-0.6-1.1-0.7-2.5-1c-0.2-0.1-0.4-0.2-0.6-0.2c0.1,0.2,0.4,0.4,0.5,0.5c0.3,0.2,0.2,0.5-0.1,0.6
		c-0.3,0.1-0.5,0.2-0.6,0.4c-0.3,0.2-0.4,0.4-0.6,0.7c-0.2,0.3-0.2,0.6-0.4,0.9c-0.2,0.2-0.3,0.5-0.5,0.7c-0.5,0.4-1.2,0.8-1.9,1.1
		c-0.3,0.1-0.6,0-0.9,0c0,0,0,0-0.1,0l0,0c-0.5-0.1-1-0.4-1.1-0.8c-0.2-0.2-0.2-0.5-0.1-0.7c0.3-0.3,0.8-0.3,1.3-0.4
		c0.3,0,0.7,0.1,1-0.1c0.1-0.2,0.4-0.3,0.6-0.5c0.2-0.2,0.3-0.4,0.4-0.6c0.1-0.2,0.2-0.5,0.3-0.7c0.1-0.2,0-0.5-0.2-0.7
		C43,32,43,31.8,43.4,31.7c0.2-0.1,0.6-0.1,0.8-0.2c-0.1,0-0.2,0-0.2-0.1c-0.4-0.1-3-0.4-3.7-0.4c2,0,3.3-1.2,3.4-2.6
		c0.1-2,1-2.8,1.5-3.7c0.4-0.6,1.3-1.3,1.1-2.1c-0.2-0.8-0.7-1.7-0.4-2.5c0.2-0.8,1-1.3,1.3-2c0.2-0.9-0.8-1.9-0.3-2.7
		c0.1-0.7,1.3-1.2,0.8-2.1c-0.3-0.8-0.1-1.6,0.4-2.2c0.4-0.4,0.5-1.9,0.9-1.5c0.4,0.8,0.1,1.6-0.3,2.3c-0.4,0.8,0.7,1.7,0.3,2.5
		c-0.3,0.7-1.1,1.2-0.6,2c0.7,1,0.8,2.1,0.1,2.9c-0.6,0.6-0.7,1.4-0.2,2.2c0.4,0.8,0.5,1.7,0,2.4c-0.3,0.7-1.3,2.1-0.9,3.1
		c1,3-0.5,2.5,1.2,5.5C48.6,32.9,49,33.2,48.6,33.2L48.6,33.2L48.6,33.2z M41.2,36.4c0.2,0,0.3,0,0.5-0.1c0,0.1,0.2-0.1,0.4-0.2
		c0.2,0,0.2-0.2,0.5-0.2c0-0.1,0.4-0.2,0.2-0.3c0.2-0.1,0.2-0.1,0.4-0.2c-0.1-0.2-0.5-0.4-0.8-0.4c-0.1,0.2,0,0.4-0.4,0.5
		c-0.1,0-0.3,0.2-0.3,0.1c-0.3,0-0.6,0-0.8-0.1c-0.1,0.1-0.4,0-0.4,0c-0.3,0.1-0.1,0.4,0.1,0.6C40.8,36.3,41,36.3,41.2,36.4
		L41.2,36.4L41.2,36.4z M43.9,33.6c0.3,0-0.4-0.4-0.3-0.2C43.7,33.6,43.8,33.5,43.9,33.6z"/>
	<path class="st1" d="M31.4,31.2l3-14c-0.5-0.2-1.1-0.3-1.5-0.3c-2.2-0.1-4.7,2.5-6.6,5.5c-0.4,0-0.7-0.1-1-0.1
		c-2.3-0.1-3.9,0.9-3.9,2.2c0,0.7,0.5,1.1,1.2,1.1c0.6,0,1.1-0.3,1.1-0.7c0-0.3-0.2-0.6-0.2-0.6c0.2-0.6,1-0.9,2.2-0.9
		c-1.7,2.9-2.8,6-2.8,7.7c0,2,1.5,2.1,2.6,2.1c-0.1-0.2-0.3-0.5-0.3-1.1c0-2,1-5.6,2.5-8.7c0.8,0.1,1.6,0.3,2.6,0.8l-1.5,6.9
		L31.4,31.2L31.4,31.2z M30.3,23.4c-0.7-0.3-1.6-0.6-2.3-0.7c1.1-2.1,2.3-3.9,3.4-4.4L30.3,23.4z"/>
	<path class="st1" d="M43.4,17.7L40.6,18l-0.9,4.4v-0.1c0-0.6-0.5-1-1.5-1c-3.3-0.1-4.9,4-4.9,6.5c0,2.3,1.2,3.1,2.5,3.1
		c1.3,0,2.1-0.7,2.7-1.5c0.2,1.1,1,1.6,2,1.6c1,0,2-1.6,2.1-1.9c-0.1,0.1-0.3,0.1-0.6,0.1c-0.6,0-0.8-0.3-0.8-0.8
		c0-0.2,0-0.4,0.1-0.6L43.4,17.7L43.4,17.7z M38.4,27.8c-0.2,0.9-1,1.3-1.5,1.3c-0.3,0-1,0-1-1.5c0-1.8,1-5.2,2.7-5.2
		c0.6,0,0.7,0.5,0.8,0.7L38.4,27.8z"/>
	<path class="st1" d="M12.6,33.1l-4,18.6h4.2l2.3-11c0.4-0.1,0.7-0.1,1-0.1c1.3,0,1.8,0.8,1.8,2c0,2.2-1.5,5.8-1.5,7.7
		c0,1,0.4,2,2.3,2c0.7,0,1.7-0.1,2.9-0.5c-0.7-0.3-1.1-1.1-1.1-1.9c0-1.8,1.4-5,1.4-7.4c0-1.4-0.5-2.5-2-2.9c2-1.2,3.2-3.2,3.2-5
		c0-2.4-2-4.7-6.6-4.7c-4.9,0-10.3,3.7-10.3,7.6c0,2.1,1.1,2.8,3.1,2.8c0-0.3-0.4-0.5-0.4-2c0-4.4,3.2-7.1,7.9-7.1
		c2.3,0,3.2,1.4,3.2,3.1c0,2.2-1.7,5.1-4.2,5.1h-0.2l1.4-6.8L12.6,33.1z"/>
	<path class="st1" d="M33.3,37.1L33,38.7v-0.2c0-0.8-0.7-1.5-2.4-1.5c-5.1,0-7.5,6.3-7.5,10.2c0,3.5,1.9,4.7,3.9,4.7
		c2.1,0,3.4-1.3,4.4-2.7c0.2,1.8,1.2,2.7,2.9,2.7c1.6,0,4.2-0.6,5.9-5.4h-1.2c-0.4,1.5-1.2,2.7-2.4,2.7c-0.8,0-1.2-0.4-1.2-1.3
		c0-0.3,0-0.6,0.1-0.9l2.1-9.9H33.3L33.3,37.1z M31.5,38.8c0.9,0,1.2,0.8,1.2,1.1l-1.4,6.6c-0.4,1.7-1.6,2.6-2.4,2.6
		c-0.5,0-1.5,0-1.5-2.3C27.4,44,29,38.8,31.5,38.8z"/>
	<path class="st1" d="M49.8,31.9l-1.4,6.7v-0.1c0-0.8-0.7-1.5-2.4-1.5c-5.1,0-7.5,6.3-7.5,10.2c0,3.5,1.9,4.7,3.9,4.7
		c2.1,0,3.5-1.3,4.3-2.7c0.2,1.6,1.3,2.5,2.9,2.5c1.6,0,4.2-0.5,5.9-5.2h-1.2c-0.4,1.5-1.2,2.6-2.4,2.6c-0.8,0-1.2-0.3-1.2-1.1
		c0-0.3,0-0.6,0.1-0.9l3.4-15.8L49.8,31.9L49.8,31.9z M46.7,46.7c-0.4,1.6-1.6,2.4-2.4,2.4c-0.5,0-1.5,0-1.5-2.3c0-2.7,1.6-8,4.1-8
		c0.9,0,1.1,0.7,1.2,1l-1.4,6.7V46.7z"/>
	<path class="st1" d="M56.2,37.1l-3.1,14.7c-2.2,0.7-4.8,1.9-4.8,4.4c0,1.9,1.5,2.8,3.3,2.8c1.9,0,4.4-0.8,5.3-5l0.4-2.1
		c1.8-0.5,4-1.6,5.2-5.5h-1.2c-0.8,2.5-1.9,3.5-3.7,4.2l2.9-13.6H56.2L56.2,37.1z M56.6,33.2c0,1.3,1,2.3,2.3,2.3
		c1.3,0,2.3-1,2.3-2.3s-1.1-2.3-2.3-2.3C57.6,30.9,56.6,31.9,56.6,33.2L56.6,33.2z M49.9,55.8c0-1.2,1.4-1.9,2.9-2.5l-0.2,0.8
		c-0.4,1.7-1.1,2.6-1.7,2.6C50.3,56.8,49.9,56.2,49.9,55.8z"/>
	<path class="st1" d="M71.1,37.1l-0.3,1.5v-0.2c0-0.8-0.7-1.5-2.4-1.5c-5.1,0-7.5,6.3-7.5,10.2c0,3.5,1.9,4.7,3.9,4.7
		c2.1,0,3.5-1.4,4.4-2.7c0.2,1.7,1.3,2.7,2.9,2.7c1.6,0,2.1-0.9,2.9-3c-0.2,0.1-0.4,0.1-0.6,0.1c-0.8,0-1.2-0.3-1.2-1.1
		c0-0.3,0-0.6,0.1-0.9l2.1-9.9H71.1L71.1,37.1z M69.3,38.8c0.9,0,1.2,0.8,1.2,1.1l-1.4,6.6c-0.4,1.7-1.6,2.6-2.4,2.6
		c-0.5,0-1.5,0-1.5-2.3C65.2,44,66.8,38.8,69.3,38.8z"/>
	<polygon class="st1" points="48.9,5.6 49.3,7 50.8,7 49.6,7.8 50,9.2 48.9,8.3 47.7,9.2 48.2,7.8 47,7 48.5,7 	"/>
</g>
</svg>
